<?xml version="1.0" encoding="utf-8"?>
<!-- Generator: Adobe Illustrator 16.0.0, SVG Export Plug-In . SVG Version: 6.00 Build 0)  -->
<!DOCTYPE svg PUBLIC "-//W3C//DTD SVG 1.1//EN" "http://www.w3.org/Graphics/SVG/1.1/DTD/svg11.dtd">
<svg version="1.1" id="b582dbfc-ed60-4217-aa06-1e10ec960023"
	 xmlns="http://www.w3.org/2000/svg" xmlns:xlink="http://www.w3.org/1999/xlink" x="0px" y="0px" width="991px" height="514.688px"
	 viewBox="-102.5 163.688 991 514.688" enable-background="new -102.5 163.688 991 514.688" xml:space="preserve">
<title>business_shop</title>
<path fill="#A0616A" d="M650.701,193c0,0,2.6,35.091,2.6,36.391c0,1.299-18.195,90.977-18.195,90.977s-25.993,49.387,0,48.087
	c25.993-1.299,18.195-46.788,18.195-46.788l27.293-75.381L668.896,193H650.701z"/>
<rect x="146.169" y="282.832" fill="#F2F2F2" width="516.463" height="362.797"/>
<rect x="189.645" y="421.256" fill="#3F3D56" width="129.678" height="226.373"/>
<rect x="213.632" y="434.836" fill="#F2F2F2" width="34.932" height="32.564"/>
<rect x="260.404" y="434.836" fill="#F2F2F2" width="34.932" height="32.564"/>
<rect x="213.632" y="479.241" fill="#F2F2F2" width="34.932" height="33.748"/>
<rect x="260.404" y="479.241" fill="#F2F2F2" width="34.932" height="33.748"/>
<circle fill="#5596E6" cx="302.832" cy="549.683" r="8.245"/>
<rect x="362.799" y="399.766" fill="#3F3D56" width="256.357" height="215.131"/>
<polygon fill="#3F3D56" points="716.602,351.133 92.199,351.133 133.831,264.092 143.148,244.603 155.337,219.117 164.654,199.628 
	175.455,177.051 667.407,177.051 673.786,199.628 679.295,219.117 686.499,244.603 692.008,264.092 "/>
<rect x="371.794" y="488.967" fill="#5596E6" width="8.995" height="55.469"/>
<rect x="371.794" y="497.213" fill="#F2F2F2" width="8.995" height="6.746"/>
<rect x="371.794" y="529.446" fill="#F2F2F2" width="8.995" height="6.746"/>
<rect x="385.286" y="488.967" fill="#5596E6" width="21.738" height="55.469"/>
<rect x="385.286" y="497.213" fill="#F2F2F2" width="21.738" height="6.746"/>
<rect x="385.286" y="529.446" fill="#F2F2F2" width="21.738" height="6.746"/>
<rect x="412.271" y="488.967" fill="#5596E6" width="8.995" height="55.469"/>
<rect x="412.271" y="497.213" fill="#F2F2F2" width="8.995" height="6.746"/>
<rect x="412.271" y="529.446" fill="#F2F2F2" width="8.995" height="6.746"/>
<rect x="425.764" y="488.967" fill="#5596E6" width="8.995" height="55.469"/>
<rect x="425.764" y="497.213" fill="#F2F2F2" width="8.995" height="6.746"/>
<rect x="425.764" y="529.446" fill="#F2F2F2" width="8.995" height="6.746"/>
<rect x="444.503" y="488.967" transform="matrix(-0.9357 0.3528 -0.3528 -0.9357 1051.4314 841.7556)" fill="#5596E6" width="8.995" height="55.469"/>
<rect x="438.819" y="498.248" transform="matrix(-0.9358 0.3526 -0.3526 -0.9358 1035.0436 814.6912)" fill="#F2F2F2" width="8.995" height="6.746"/>
<rect x="450.188" y="528.409" transform="matrix(-0.9358 0.3526 -0.3526 -0.9358 1067.686 869.0651)" fill="#F2F2F2" width="8.995" height="6.746"/>
<rect x="589.173" y="488.967" fill="#5596E6" width="21.738" height="55.469"/>
<rect x="589.173" y="497.213" fill="#F2F2F2" width="21.738" height="6.746"/>
<rect x="589.173" y="529.446" fill="#F2F2F2" width="21.738" height="6.746"/>
<rect x="574.931" y="488.967" fill="#5596E6" width="8.995" height="55.469"/>
<rect x="574.931" y="497.213" fill="#F2F2F2" width="8.995" height="6.746"/>
<rect x="574.931" y="529.446" fill="#F2F2F2" width="8.995" height="6.746"/>
<rect x="561.438" y="488.967" fill="#5596E6" width="8.995" height="55.469"/>
<rect x="561.438" y="497.213" fill="#F2F2F2" width="8.995" height="6.746"/>
<rect x="561.438" y="529.446" fill="#F2F2F2" width="8.995" height="6.746"/>
<rect x="519.462" y="512.204" transform="matrix(-0.3527 0.9357 -0.9357 -0.3527 1223.7017 186.9368)" fill="#5596E6" width="55.468" height="8.995"/>
<rect x="549.508" y="497.124" transform="matrix(-0.3528 0.9357 -0.9357 -0.3528 1217.2939 161.2444)" fill="#F2F2F2" width="6.746" height="8.995"/>
<rect x="538.139" y="527.284" transform="matrix(-0.3528 0.9357 -0.9357 -0.3528 1230.1353 212.6824)" fill="#F2F2F2" width="6.746" height="8.995"/>
<rect x="362.799" y="544.436" fill="#F2F2F2" width="256.357" height="5.248"/>
<rect x="474.486" y="488.967" fill="#5596E6" width="47.224" height="55.469"/>
<rect x="486.105" y="500.961" fill="#F2F2F2" width="23.986" height="10.494"/>
<rect x="488.729" y="399.766" fill="#F2F2F2" width="4.498" height="47.975"/>
<circle fill="#F2F2F2" cx="490.978" cy="447.741" r="7.496"/>
<polygon fill="#5596E6" points="679.295,219.117 155.337,219.117 164.654,199.628 673.786,199.628 "/>
<polygon fill="#5596E6" points="692.008,264.092 133.831,264.092 143.148,244.603 686.499,244.603 "/>
<circle fill="#5596E6" cx="100" cy="386.376" r="100"/>
<circle opacity="0.1" enable-background="new    " cx="100" cy="386.376" r="86"/>
<path fill="#F2F2F2" d="M95.879,437.124v-12.516c-6.327-0.125-12.873-2.355-16.691-5.453l2.618-8.305
	c4.537,3.4,10.04,5.268,15.709,5.33c7.746,0,12.982-5.082,12.982-12.146c0-6.816-4.255-11.029-12.328-14.748
	c-11.127-4.956-18-10.658-18-21.439c0-10.286,6.437-18.094,16.473-19.953v-12.517h6.763v12.021
	c5.044,0.069,9.963,1.573,14.183,4.337l-2.728,8.18c-4.047-2.77-8.842-4.24-13.746-4.213c-8.4,0-11.564,5.699-11.564,10.658
	c0,6.443,4.037,9.666,13.528,14.128c11.236,5.205,16.909,11.649,16.909,22.679c0,9.791-6,18.963-17.237,21.068v12.889H95.879z"/>
</svg>
